<?xml version="1.0" standalone="no"?>
<svg xmlns="http://www.w3.org/2000/svg" viewBox="0 0 147.3 29" width="147.3" height="29"><path fill="#f7f3f3" fill-rule="nonzero" d="M3.91 5.52L3.91 5.52Q3.68 5.61 3.46 5.61L3.46 5.61Q2.89 5.61 2.68 4.95L2.68 4.95Q2.63 4.77 2.61 4.65Q2.59 4.54 2.59 4.44L2.59 4.44Q2.59 3.89 3.21 3.62L3.21 3.62Q4.44 3.13 5.72 2.82Q7.00 2.52 8.30 2.52L8.30 2.52Q8.91 2.52 9.50 2.65Q10.09 2.78 10.56 3.09Q11.03 3.41 11.32 3.94Q11.61 4.46 11.61 5.26L11.61 5.26Q11.61 5.82 11.38 6.34Q11.16 6.86 10.78 7.32Q10.41 7.79 9.93 8.21Q9.45 8.64 8.94 8.99Q8.44 9.34 7.95 9.63Q7.45 9.91 7.05 10.13L7.05 10.13Q6.71 10.32 6.71 10.54L6.71 10.54Q6.71 10.78 7.08 10.92L7.08 10.92Q8.33 11.37 9.64 11.75Q10.96 12.14 12.30 12.62L12.30 12.62Q12.94 12.86 12.94 13.35L12.94 13.35Q12.94 13.58 12.80 13.82Q12.67 14.06 12.50 14.26L12.50 14.26Q12.16 14.77 11.66 14.77L11.66 14.77Q11.48 14.77 11.23 14.70L11.23 14.70Q10.46 14.40 9.59 14.09Q8.72 13.77 7.81 13.46Q6.90 13.15 6.02 12.86Q5.14 12.57 4.39 12.34L4.39 12.34Q4.13 12.27 4.03 12.27L4.03 12.27Q3.94 12.27 3.88 12.31Q3.83 12.35 3.83 12.48L3.83 12.48Q3.83 12.52 3.84 12.57Q3.86 12.62 3.86 12.68L3.86 12.68Q3.89 12.86 3.94 13.14Q4.00 13.43 4.05 13.73Q4.10 14.04 4.14 14.31Q4.17 14.59 4.17 14.77L4.17 14.77Q4.17 15.42 3.46 15.68L3.46 15.68L2.93 15.84Q2.81 15.88 2.72 15.90Q2.63 15.91 2.52 15.91L2.52 15.91Q1.88 15.91 1.77 15.12L1.77 15.12Q1.49 12.98 1.05 10.91Q0.61 8.84 0.05 6.77L0.05 6.77Q0.01 6.66 0.01 6.57Q0 6.48 0 6.41L0 6.41Q0 5.79 0.67 5.57L0.67 5.57Q0.91 5.48 1.07 5.44Q1.23 5.39 1.33 5.36Q1.43 5.33 1.48 5.32Q1.54 5.31 1.58 5.31L1.58 5.31Q2.21 5.31 2.40 6.02L2.40 6.02Q2.65 6.94 2.87 7.79Q3.08 8.65 3.26 9.48L3.26 9.48Q3.35 9.89 3.60 9.89L3.60 9.89Q3.67 9.89 3.76 9.86Q3.86 9.83 3.98 9.77L3.98 9.77Q4.36 9.57 4.89 9.28Q5.43 8.99 6.01 8.63Q6.59 8.27 7.15 7.88Q7.72 7.48 8.17 7.08Q8.63 6.68 8.91 6.29Q9.19 5.91 9.19 5.57L9.19 5.57Q9.19 5.36 9.12 5.18Q9.06 5.00 8.88 4.88Q8.71 4.75 8.41 4.68Q8.11 4.61 7.65 4.61L7.65 4.61Q7.21 4.61 6.72 4.68Q6.23 4.76 5.75 4.89Q5.27 5.02 4.80 5.18Q4.34 5.34 3.91 5.52ZM14.92 2.45L14.92 2.45Q14.58 2.45 14.28 2.35Q13.98 2.25 13.76 2.07Q13.55 1.89 13.42 1.64Q13.29 1.39 13.29 1.10L13.29 1.10Q13.29 0.61 13.68 0.30Q14.07 0 14.73 0L14.73 0Q15.04 0 15.32 0.11Q15.60 0.22 15.81 0.41Q16.03 0.60 16.16 0.85Q16.29 1.10 16.29 1.37L16.29 1.37Q16.29 1.88 15.92 2.16Q15.55 2.45 14.92 2.45ZM13.31 6.02L13.31 6.02Q13.31 5.61 13.67 5.35Q14.03 5.09 14.61 5.09L14.61 5.09Q15.67 5.09 15.74 5.81L15.74 5.81Q15.79 6.32 15.84 6.95Q15.89 7.58 15.94 8.29Q16.00 9 16.04 9.76Q16.08 10.51 16.11 11.24Q16.15 11.98 16.17 12.66Q16.20 13.34 16.20 13.90L16.20 13.90Q16.20 14.48 15.78 14.78Q15.36 15.07 14.57 15.07L14.57 15.07Q14.20 15.07 14.00 14.90Q13.79 14.73 13.79 14.40L13.79 14.40Q13.79 12.79 13.72 11.37Q13.64 9.96 13.55 8.86Q13.46 7.76 13.39 7.03Q13.31 6.29 13.31 6.02ZM18.52 10.51L18.52 10.51Q18.52 10.31 18.56 10.07Q18.61 9.82 18.61 9.53L18.61 9.53Q18.61 9.33 18.44 9.22Q18.27 9.12 18.06 8.99Q17.85 8.86 17.68 8.66Q17.51 8.46 17.51 8.09L17.51 8.09Q17.51 7.82 17.65 7.55Q17.80 7.28 18.08 7.05L18.08 7.05Q18.77 6.54 19.52 6.13Q20.26 5.72 21.01 5.44Q21.75 5.16 22.48 5.00Q23.20 4.85 23.87 4.85L23.87 4.85Q25.00 4.85 25.99 5.27Q26.98 5.68 27.71 6.40Q28.44 7.13 28.87 8.09Q29.30 9.06 29.30 10.16L29.30 10.16Q29.30 11.24 28.85 12.21Q28.39 13.17 27.63 13.90Q26.87 14.63 25.85 15.05Q24.82 15.48 23.68 15.48L23.68 15.48Q22.57 15.48 21.62 15.11Q20.67 14.73 19.98 14.07Q19.29 13.41 18.90 12.50Q18.52 11.59 18.52 10.51ZM23.94 13.37L23.94 13.37Q24.43 13.37 24.96 13.17Q25.49 12.97 25.93 12.59Q26.37 12.21 26.65 11.66Q26.94 11.11 26.94 10.42L26.94 10.42Q26.94 9.71 26.68 9.11Q26.43 8.50 25.97 8.04Q25.52 7.59 24.91 7.34Q24.29 7.08 23.58 7.08L23.58 7.08Q22.28 7.08 21.59 7.75Q20.89 8.43 20.89 9.82L20.89 9.82Q20.89 10.58 21.12 11.23Q21.35 11.88 21.76 12.36Q22.17 12.83 22.73 13.10Q23.29 13.37 23.94 13.37ZM39.45 15.75L39.45 15.75Q39.45 15.36 39.42 14.74Q39.39 14.12 39.34 13.37Q39.29 12.62 39.23 11.78Q39.18 10.93 39.11 10.10Q39.04 9.27 38.97 8.49Q38.91 7.71 38.85 7.08L38.85 7.08Q38.75 6.18 38.59 5.75Q38.43 5.33 38.05 5.33L38.05 5.33Q37.70 5.33 37.59 5.53Q37.48 5.73 37.46 6.02Q37.44 6.32 37.45 6.66Q37.45 7.01 37.34 7.30Q37.23 7.59 36.93 7.79Q36.62 7.99 35.99 7.99L35.99 7.99Q35.54 7.99 35.23 7.62Q34.91 7.25 34.91 6.55L34.91 6.55Q34.91 5.57 35.49 4.76Q36.07 3.96 37.13 3.39Q38.18 2.82 39.67 2.51Q41.16 2.19 42.97 2.19L42.97 2.19Q44.27 2.19 45.38 2.48Q46.48 2.77 47.28 3.28Q48.08 3.79 48.54 4.48Q49.00 5.18 49.00 6L49.00 6Q49.00 6.93 48.46 7.77Q47.92 8.61 46.97 9.32Q46.03 10.02 44.75 10.54Q43.48 11.06 42.01 11.36L42.01 11.36Q41.60 11.43 41.60 11.86L41.60 11.86Q41.60 12.15 41.64 12.59Q41.68 13.03 41.72 13.51Q41.77 13.99 41.81 14.46Q41.85 14.93 41.85 15.29L41.85 15.29Q41.85 15.95 41.54 16.23Q41.24 16.51 40.64 16.51L40.64 16.51Q40.08 16.51 39.76 16.32Q39.45 16.13 39.45 15.75ZM46.57 6.34L46.57 6.34Q46.57 5.94 46.23 5.58Q45.89 5.21 45.32 4.93Q44.74 4.65 43.99 4.49Q43.23 4.32 42.40 4.32L42.40 4.32Q41.99 4.32 41.71 4.35Q41.44 4.38 41.27 4.45Q41.11 4.52 41.04 4.63Q40.98 4.75 40.98 4.92L40.98 4.92Q40.98 5.04 41.02 5.47Q41.05 5.89 41.11 6.46Q41.17 7.02 41.23 7.63Q41.30 8.25 41.37 8.74L41.37 8.74Q41.40 9.11 41.47 9.22Q41.53 9.34 41.67 9.34L41.67 9.34Q42.07 9.34 42.59 9.21Q43.10 9.07 43.65 8.84Q44.19 8.61 44.71 8.31Q45.23 8.02 45.65 7.68Q46.07 7.35 46.32 7.00Q46.57 6.66 46.57 6.34ZM49.97 3.46L49.97 3.46Q49.97 3.25 50.07 3.06Q50.18 2.88 50.37 2.75Q50.55 2.61 50.81 2.53Q51.06 2.45 51.34 2.45L51.34 2.45Q51.89 2.45 52.15 2.63Q52.41 2.80 52.46 3.18L52.46 3.18Q52.66 4.73 52.80 6.12Q52.93 7.51 53.02 8.77Q53.10 10.03 53.13 11.19Q53.17 12.34 53.17 13.42L53.17 13.42Q53.17 14.00 52.75 14.30Q52.34 14.59 51.54 14.59L51.54 14.59Q51.18 14.59 50.97 14.42Q50.77 14.25 50.77 13.92L50.77 13.92Q50.77 11.91 50.64 10.14Q50.52 8.38 50.37 7.01Q50.21 5.64 50.09 4.72Q49.97 3.80 49.97 3.46ZM60.42 11.50L60.42 11.50Q60.02 11.50 59.65 11.55Q59.29 11.61 58.97 11.68Q58.65 11.74 58.41 11.80Q58.16 11.86 58.02 11.86L58.02 11.86Q57.89 11.86 57.76 11.75Q57.62 11.64 57.52 11.46Q57.41 11.29 57.34 11.07Q57.27 10.86 57.27 10.66L57.27 10.66Q57.27 10.49 57.52 10.17Q57.77 9.86 58.14 9.46Q58.51 9.06 58.95 8.60Q59.39 8.14 59.76 7.69Q60.13 7.23 60.38 6.80Q60.63 6.38 60.63 6.02L60.63 6.02Q60.63 5.63 60.34 5.43Q60.05 5.24 59.58 5.24L59.58 5.24Q58.93 5.24 58.29 5.39Q57.66 5.54 57.11 5.73Q56.55 5.92 56.12 6.07Q55.68 6.22 55.43 6.22L55.43 6.22Q55.27 6.22 55.12 6.13Q54.97 6.04 54.86 5.88Q54.74 5.72 54.67 5.51Q54.61 5.30 54.61 5.06L54.61 5.06Q54.61 4.65 54.74 4.34Q54.88 4.03 55.11 3.94L55.11 3.94Q55.56 3.77 56.17 3.63Q56.79 3.48 57.46 3.36Q58.13 3.25 58.79 3.18Q59.45 3.12 59.99 3.12L59.99 3.12Q61.44 3.12 62.20 3.70Q62.96 4.28 62.96 5.38L62.96 5.38Q62.96 5.87 62.84 6.30Q62.72 6.74 62.46 7.17Q62.19 7.61 61.79 8.07Q61.39 8.53 60.83 9.07L60.83 9.07Q60.61 9.29 60.61 9.43L60.61 9.43Q60.61 9.63 61.04 9.68L61.04 9.68Q62.18 9.74 63.05 10.08Q63.93 10.42 64.52 11.00Q65.12 11.59 65.43 12.39Q65.74 13.20 65.74 14.19L65.74 14.19Q65.74 15.42 65.29 16.49Q64.84 17.57 64.05 18.36Q63.26 19.15 62.19 19.61Q61.13 20.06 59.89 20.06L59.89 20.06Q58.80 20.06 57.86 19.73Q56.91 19.39 56.21 18.81Q55.51 18.23 55.11 17.46Q54.70 16.68 54.70 15.77L54.70 15.77Q54.70 15.35 54.80 14.92Q54.89 14.50 55.04 14.16Q55.20 13.82 55.38 13.61Q55.57 13.39 55.76 13.39L55.76 13.39Q56.05 13.39 56.33 13.46Q56.60 13.52 56.82 13.63Q57.04 13.75 57.17 13.89Q57.30 14.03 57.30 14.17L57.30 14.17Q57.30 14.29 57.26 14.41Q57.22 14.53 57.18 14.68Q57.14 14.82 57.10 14.99Q57.06 15.15 57.06 15.34L57.06 15.34Q57.06 15.87 57.30 16.34Q57.54 16.82 57.95 17.17Q58.36 17.52 58.91 17.72Q59.46 17.93 60.08 17.93L60.08 17.93Q60.83 17.93 61.45 17.68Q62.06 17.43 62.50 16.96Q62.94 16.50 63.18 15.86Q63.42 15.22 63.42 14.45L63.42 14.45Q63.42 13.82 63.19 13.28Q62.96 12.74 62.57 12.35Q62.17 11.95 61.62 11.72Q61.07 11.50 60.42 11.50ZM71.00 11.50L71.00 11.50Q70.61 11.50 70.24 11.55Q69.87 11.61 69.55 11.68Q69.23 11.74 68.99 11.80Q68.74 11.86 68.60 11.86L68.60 11.86Q68.47 11.86 68.34 11.75Q68.20 11.64 68.10 11.46Q67.99 11.29 67.92 11.07Q67.85 10.86 67.85 10.66L67.85 10.66Q67.85 10.49 68.10 10.17Q68.36 9.86 68.72 9.46Q69.09 9.06 69.53 8.60Q69.97 8.14 70.34 7.69Q70.71 7.23 70.96 6.80Q71.21 6.38 71.21 6.02L71.21 6.02Q71.21 5.63 70.92 5.43Q70.63 5.24 70.16 5.24L70.16 5.24Q69.52 5.24 68.88 5.39Q68.24 5.54 67.69 5.73Q67.14 5.92 66.70 6.07Q66.26 6.22 66.01 6.22L66.01 6.22Q65.85 6.22 65.70 6.13Q65.55 6.04 65.44 5.88Q65.32 5.72 65.26 5.51Q65.19 5.30 65.19 5.06L65.19 5.06Q65.19 4.65 65.33 4.34Q65.46 4.03 65.70 3.94L65.70 3.94Q66.14 3.77 66.76 3.63Q67.37 3.48 68.04 3.36Q68.71 3.25 69.37 3.18Q70.03 3.12 70.57 3.12L70.57 3.12Q72.02 3.12 72.79 3.70Q73.55 4.28 73.55 5.38L73.55 5.38Q73.55 5.87 73.42 6.30Q73.30 6.74 73.04 7.17Q72.77 7.61 72.38 8.07Q71.98 8.53 71.41 9.07L71.41 9.07Q71.19 9.29 71.19 9.43L71.19 9.43Q71.19 9.63 71.63 9.68L71.63 9.68Q72.76 9.74 73.63 10.08Q74.51 10.42 75.11 11.00Q75.70 11.59 76.01 12.39Q76.32 13.20 76.32 14.19L76.32 14.19Q76.32 15.42 75.87 16.49Q75.42 17.57 74.63 18.36Q73.84 19.15 72.77 19.61Q71.71 20.06 70.48 20.06L70.48 20.06Q69.39 20.06 68.44 19.73Q67.49 19.39 66.79 18.81Q66.09 18.23 65.69 17.46Q65.29 16.68 65.29 15.77L65.29 15.77Q65.29 15.35 65.38 14.92Q65.47 14.50 65.63 14.16Q65.78 13.82 65.96 13.61Q66.15 13.39 66.34 13.39L66.34 13.39Q66.63 13.39 66.91 13.46Q67.18 13.52 67.40 13.63Q67.62 13.75 67.75 13.89Q67.89 14.03 67.89 14.17L67.89 14.17Q67.89 14.29 67.85 14.41Q67.80 14.53 67.76 14.68Q67.72 14.82 67.68 14.99Q67.64 15.15 67.64 15.34L67.64 15.34Q67.64 15.87 67.88 16.34Q68.12 16.82 68.53 17.17Q68.94 17.52 69.49 17.72Q70.04 17.93 70.66 17.93L70.66 17.93Q71.41 17.93 72.03 17.68Q72.64 17.43 73.08 16.96Q73.52 16.50 73.76 15.86Q74.00 15.22 74.00 14.45L74.00 14.45Q74.00 13.82 73.78 13.28Q73.55 12.74 73.15 12.35Q72.75 11.95 72.20 11.72Q71.65 11.50 71.00 11.50ZM81.59 11.50L81.59 11.50Q81.19 11.50 80.82 11.55Q80.45 11.61 80.13 11.68Q79.82 11.74 79.57 11.80Q79.32 11.86 79.18 11.86L79.18 11.86Q79.05 11.86 78.92 11.75Q78.79 11.64 78.68 11.46Q78.57 11.29 78.50 11.07Q78.43 10.86 78.43 10.66L78.43 10.66Q78.43 10.49 78.69 10.17Q78.94 9.86 79.31 9.46Q79.68 9.06 80.12 8.60Q80.55 8.14 80.92 7.69Q81.29 7.23 81.54 6.80Q81.80 6.38 81.80 6.02L81.80 6.02Q81.80 5.63 81.50 5.43Q81.21 5.24 80.74 5.24L80.74 5.24Q80.10 5.24 79.46 5.39Q78.82 5.54 78.27 5.73Q77.72 5.92 77.28 6.07Q76.84 6.22 76.59 6.22L76.59 6.22Q76.43 6.22 76.28 6.13Q76.14 6.04 76.02 5.88Q75.90 5.72 75.84 5.51Q75.77 5.30 75.77 5.06L75.77 5.06Q75.77 4.65 75.91 4.34Q76.04 4.03 76.28 3.94L76.28 3.94Q76.72 3.77 77.34 3.63Q77.95 3.48 78.62 3.36Q79.29 3.25 79.95 3.18Q80.61 3.12 81.15 3.12L81.15 3.12Q82.61 3.12 83.37 3.70Q84.13 4.28 84.13 5.38L84.13 5.38Q84.13 5.87 84.01 6.30Q83.88 6.74 83.62 7.17Q83.36 7.61 82.96 8.07Q82.56 8.53 82.00 9.07L82.00 9.07Q81.77 9.29 81.77 9.43L81.77 9.43Q81.77 9.63 82.21 9.68L82.21 9.68Q83.34 9.74 84.22 10.08Q85.09 10.42 85.69 11.00Q86.29 11.59 86.60 12.39Q86.91 13.20 86.91 14.19L86.91 14.19Q86.91 15.42 86.46 16.49Q86.00 17.57 85.21 18.36Q84.42 19.15 83.36 19.61Q82.29 20.06 81.06 20.06L81.06 20.06Q79.97 20.06 79.02 19.73Q78.07 19.39 77.37 18.81Q76.68 18.23 76.27 17.46Q75.87 16.68 75.87 15.77L75.87 15.77Q75.87 15.35 75.96 14.92Q76.05 14.50 76.21 14.16Q76.36 13.82 76.55 13.61Q76.73 13.39 76.92 13.39L76.92 13.39Q77.21 13.39 77.49 13.46Q77.77 13.52 77.98 13.63Q78.20 13.75 78.33 13.89Q78.47 14.03 78.47 14.17L78.47 14.17Q78.47 14.29 78.43 14.41Q78.39 14.53 78.35 14.68Q78.30 14.82 78.26 14.99Q78.22 15.15 78.22 15.34L78.22 15.34Q78.22 15.87 78.46 16.34Q78.70 16.82 79.11 17.17Q79.52 17.52 80.07 17.72Q80.63 17.93 81.25 17.93L81.25 17.93Q82.00 17.93 82.61 17.68Q83.23 17.43 83.67 16.96Q84.11 16.50 84.35 15.86Q84.59 15.22 84.59 14.45L84.59 14.45Q84.59 13.82 84.36 13.28Q84.13 12.74 83.73 12.35Q83.33 11.95 82.78 11.72Q82.23 11.50 81.59 11.50ZM94.62 4.16L94.62 4.16Q95.26 4.16 95.86 4.36Q96.46 4.56 96.91 4.91Q97.37 5.26 97.65 5.75Q97.92 6.25 97.92 6.84L97.92 6.84Q97.92 7.09 97.81 7.32Q97.70 7.55 97.51 7.72Q97.32 7.89 97.08 7.99Q96.84 8.09 96.59 8.09L96.59 8.09Q96.56 8.09 96.54 8.09Q96.53 8.10 96.50 8.10L96.50 8.10Q96.48 8.11 96.46 8.11L96.46 8.11L96.50 9.05Q96.55 10.72 96.98 11.50Q97.41 12.27 98.10 12.27L98.10 12.27Q98.34 12.27 98.54 12.22Q98.73 12.18 98.90 12.11Q99.07 12.05 99.22 12Q99.38 11.95 99.53 11.95L99.53 11.95Q99.80 11.95 100.00 12.19Q100.21 12.42 100.21 12.75L100.21 12.75Q100.21 13.08 99.96 13.41Q99.70 13.73 99.29 14.00Q98.88 14.26 98.37 14.43Q97.85 14.59 97.32 14.59L97.32 14.59Q96.41 14.59 95.72 13.83Q95.03 13.08 94.73 11.61L94.73 11.61Q94.66 11.38 94.55 11.38L94.55 11.38Q94.41 11.38 94.30 11.52L94.30 11.52Q93.14 12.98 91.83 13.72Q90.52 14.45 89.24 14.45L89.24 14.45Q88.64 14.45 88.16 14.27Q87.68 14.10 87.35 13.78Q87.01 13.45 86.83 12.99Q86.65 12.53 86.65 11.95L86.65 11.95Q86.65 11.14 87.01 10.25Q87.36 9.36 87.97 8.50Q88.58 7.63 89.38 6.84Q90.19 6.06 91.07 5.46Q91.96 4.86 92.87 4.51Q93.79 4.16 94.62 4.16ZM94.23 8.21L94.23 8.21Q94.44 7.82 94.62 7.63Q94.79 7.45 95.12 7.39L95.12 7.39Q95.38 7.36 95.38 7.23L95.38 7.23Q95.38 7.14 95.31 7.03L95.31 7.03Q95.09 6.73 94.84 6.50Q94.59 6.27 94.18 6.27L94.18 6.27Q93.74 6.27 93.19 6.53Q92.64 6.79 92.07 7.21Q91.50 7.64 90.96 8.19Q90.41 8.73 89.99 9.30Q89.57 9.88 89.31 10.44Q89.05 11.00 89.05 11.45L89.05 11.45Q89.05 11.85 89.27 12.07Q89.48 12.29 89.86 12.29L89.86 12.29Q90.82 12.29 91.96 11.27Q93.09 10.25 94.23 8.21Z" transform="translate(0, 4.469)"></path><line x1="109.20703125" y1="2%" x2="109.20703125" y2="98%" stroke="#f7f3f3" stroke-linecap="round"></line><g fill="#c11c1c" color="#c11c1c" transform="translate(118.20703125 0) scale(0.58)"><svg width="50.0" height="50.0" x="0.0" y="0.0" viewBox="0 0 50 50"><g><path fill-rule="evenodd" clip-rule="evenodd" fill="currentColor" d="M24.342,24.97l22.423-3.886c0.181,1.255,0.3,2.571,0.3,3.886   c0,12.914-10.166,23.379-22.723,23.379c-12.616,0-22.78-10.465-22.78-23.379c0-12.854,10.164-23.318,22.78-23.318   c2.571,0,5.143,0.478,7.594,1.316L24.342,24.97L24.342,24.97z M21.412,27.479l6.816-21.762C16.868,2.251,4.91,14.329,4.91,24.97   c0,11.002,8.671,19.971,19.432,19.971c10.703,0,19.372-8.969,19.372-19.971c0-0.177,0-0.419,0-0.597L21.412,27.479z"></path><path fill-rule="evenodd" clip-rule="evenodd" fill="currentColor" d="M48.438,16.181c-5.623,0.896-11.241,1.733-16.86,2.633   l2.749-6.939c0.12,0.062,0.24,0.062,0.358,0.062c1.257,0,2.274-1.195,2.274-2.63c0-0.778-0.301-1.557-0.84-2.034l1.735-4.244   C43.896,5.178,47.78,9.306,48.438,16.181L48.438,16.181z M43.237,11.519c-0.957,0-1.734,0.775-1.734,1.731s0.777,1.735,1.734,1.735   c0.954,0,1.732-0.779,1.732-1.735S44.191,11.519,43.237,11.519z"></path><path fill-rule="evenodd" clip-rule="evenodd" fill="currentColor" d="M19.141,29.454l20.568-1.854c0,0.18,0,0.359,0,0.541   c-0.059,1.492-0.3,2.807-0.599,4.002c-0.598-0.836-1.555-1.373-2.69-1.373c-1.794,0-3.227,1.373-3.227,3.049   c0,1.674,1.433,3.049,3.227,3.049c0.119,0,0.239,0,0.357,0c-3.885,4.963-10.882,6.338-17.099,4.424   c0.239-0.176,0.36-0.477,0.36-0.775c0-0.719-0.659-1.316-1.379-1.316c-0.716,0-1.313,0.539-1.373,1.195   c-5.502-2.512-9.748-7.832-9.388-15.426c0.358-9.027,7.775-20.39,17.398-17.459L19.141,29.454L19.141,29.454z M25.478,31.489   c-1.193,0-2.151,0.895-2.151,2.029c0,1.137,0.958,2.035,2.151,2.035c1.138,0,2.094-0.898,2.094-2.035   C27.571,32.384,26.615,31.489,25.478,31.489L25.478,31.489z M12.503,27.899c-1.556,0-2.75,1.316-2.75,3.049   c0,1.678,1.194,2.99,2.75,2.99c1.495,0,2.751-1.313,2.751-2.99C15.254,29.216,13.998,27.899,12.503,27.899L12.503,27.899z    M16.389,16.839c-1.135,0-2.031,0.896-2.031,1.975c0,1.074,0.896,1.972,2.031,1.972c1.138,0,2.033-0.897,2.033-1.972   C18.422,17.735,17.526,16.839,16.389,16.839z"></path></g></svg></g></svg>